# xmcd CD database file
#
# Track frame offsets:
#	150
#	15224
#	43086
#	59540
#	78814
#	105738
#	123982
#	137556
#	153305
#	175504
#	186347
#
# Disc length: 2789 seconds
#
# Revision: 0
# Processed by: cddbd v1.5.2PL0 Copyright (c) Steve Scherf et al.
# Submitted via: CDex 1.70beta2
#
DISCID=810ae30b
DTITLE=Monaco Blues Band - Mud, Blood And Beer (z LP)
DYEAR=2002
DGENRE=Blues
TTITLE0=Heart
TTITLE1=I Know You
TTITLE2=Moaning
TTITLE3=It Hurts Me Too
TTITLE4=Ghostriders-Medley
TTITLE5=24-Hour Man
TTITLE6=Moving Down The Highway
TTITLE7=Hurt So Fine
TTITLE8=If Head Possession Over Judgement Day
TTITLE9=Blues Ain't Bad
TTITLE10=When The Sun Goes Down
EXTD=YEAR: 2002
EXTT0=
EXTT1=
EXTT2=
EXTT3=
EXTT4=
EXTT5=
EXTT6=
EXTT7=
EXTT8=
EXTT9=
EXTT10=
PLAYORDER=
